# xmcd
# 
# Track frame offsets:
#     150
#     17185
#     28650
#     43307
#     56817
#     77365
#     100122
#     121482
#     138280
#     160992
# 
# Disc length: 2341
# 
# Revision: 17
# Processed by: cddbd v1.5.2PL0 Copyright (c) Steve Scherf et al.
# Submitted via: fre:ac v1.0.31
# 
DISCID=8009230a
DTITLE=Bob Dylan - Oh Mercy
DYEAR=1989
DGENRE=Rock
TTITLE0=Political World
TTITLE1=Where Teardrops Fall
TTITLE2=Everything Is Broken
TTITLE3=Ring Them Bells
TTITLE4=Man In The Long Black Coat
TTITLE5=Most Of The Time
TTITLE6=What Good Am I?
TTITLE7=Disease Of Conceit
TTITLE8=What Was It You Wanted
TTITLE9=Shooting Star
EXTD=
EXTT0=
EXTT1=
EXTT2=
EXTT3=
EXTT4=
EXTT5=
EXTT6=
EXTT7=
EXTT8=
EXTT9=
PLAYORDER=
